<?xml version="1.0" encoding="utf-8"?><svg xmlns="http://www.w3.org/2000/svg" xmlns:xlink="http://www.w3.org/1999/xlink"><symbol viewBox="0 0 8 8" id="loop-single"><path d="M6.002 0v1.002C4.3 1.004 2.595.995.892 1.006c-.548.042-.962.585-.9 1.124v.874H.996v-1h5.007v1l2.003-1.502c-.668-.5-1.336-1-2.003-1.502zm.086 3.184c-1.062-.075-1.835.97-1.98 1.823H1.997v-1l-2.003 1.5 2.003 1.504v-1H4.4c.55 1.12 2.228 1.355 3.063.427.46-.437.57-1.08.542-1.685v-.746c-.258.027-.48 0-.593-.29-.352-.34-.836-.533-1.324-.53zm.067.476c.293-.086.27.175.258.367v2.066c.167.01.34-.017.503.014.13.193.05.525-.227.436H5.3c-.188-.144-.096-.552.19-.45.1-.028.313.057.342-.042V4.23c-.192.092-.367.24-.574.285-.152-.206-.016-.46.205-.544.17-.096.323-.238.508-.304.06-.006.122-.006.182-.006z"/></symbol></svg>