<svg xmlns="http://www.w3.org/2000/svg" height="8" width="8" version="1.1" viewBox="0 0 8 8">
 <path d="m6.002 0v1.0015c-1.7031 0.00345-3.4067-0.006907-5.1095 0.0052-0.54821 0.0425-0.96298 0.5856-0.8995 1.1241v0.87368h1.0015v-1.0015h5.0075v1.0015l2.0031-1.5021c-0.6677-0.5008-1.3356-1.0015-2.0031-1.5024zm0.086036 3.1845c-1.0618-0.075578-1.8347 0.96819-1.9789 1.823h-2.1132v-1.0015l-2.003 1.5023 2.003 1.5023v-1.0015h2.404c0.54902 1.1213 2.228 1.3563 3.0632 0.42782 0.45961-0.43735 0.56857-1.0803 0.54177-1.6849v-0.74587c-0.2578 0.0273-0.4787-0.0007-0.5932-0.2906-0.3515-0.3384-0.836-0.5324-1.3237-0.531zm0.066497 0.47534c0.29389-0.085418 0.27048 0.17533 0.25848 0.36687v2.0667c0.16688 0.00839 0.34015-0.017266 0.5028 0.01371 0.12894 0.19311 0.050198 0.52465-0.2269 0.43624h-1.3868c-0.1886-0.1444-0.0957-0.5528 0.1898-0.4499 0.1002-0.0281 0.3133 0.0567 0.3423-0.0426v-1.8196c-0.1923 0.0909-0.367 0.2378-0.5739 0.2842-0.1524-0.206-0.0164-0.4607 0.2048-0.5449 0.1713-0.097 0.3231-0.2382 0.5077-0.3049 0.0603-0.0053 0.1223-0.006 0.1817-0.0058z"/>
</svg>
